<svg xmlns="http://www.w3.org/2000/svg" xmlns:xlink="http://www.w3.org/1999/xlink" viewBox="0 0 391.74 429.57"><defs><style>.cls-1{fill:none;}.cls-2{fill:url(#blue_gradient);}.cls-3,.cls-5,.cls-8{fill:#fff;}.cls-3,.cls-7{opacity:0.95;}.cls-4{clip-path:url(#clip-path);}.cls-5,.cls-8{fill-rule:evenodd;}.cls-5{opacity:0.87;}.cls-6{clip-path:url(#clip-path-2);}.cls-9{opacity:0.3;}.cls-10{fill:url(#linear-gradient);}.cls-11{opacity:0;fill:url(#linear-gradient-2);}.cls-12{opacity:0.5;fill:url(#linear-gradient-3);}</style><linearGradient id="blue_gradient" x1="97.93" y1="384.41" x2="293.8" y2="45.16" gradientUnits="userSpaceOnUse"><stop offset="0" stop-color="#00b9e3"/><stop offset="1" stop-color="#0097ce"/></linearGradient><clipPath id="clip-path"><rect class="cls-1" x="192.95" y="123.84" width="89.49" height="178.98"/></clipPath><clipPath id="clip-path-2"><rect class="cls-1" x="103.46" y="123.84" width="89.49" height="178.98"/></clipPath><linearGradient id="linear-gradient" y1="162.79" x2="196.03" y2="162.79" gradientUnits="userSpaceOnUse"><stop offset="0" stop-color="#fff" stop-opacity="0.6"/><stop offset="1" stop-color="#fff" stop-opacity="0.3"/></linearGradient><linearGradient id="linear-gradient-2" x1="196.03" y1="162.77" x2="391.74" y2="162.77" gradientUnits="userSpaceOnUse"><stop offset="0" stop-color="#fff"/><stop offset="1" stop-color="#fff" stop-opacity="0"/></linearGradient><linearGradient id="linear-gradient-3" x1="195.88" y1="429.57" x2="195.88" y2="215.68" xlink:href="#linear-gradient-2"/></defs><title>birthday-gifts</title><g id="Layer_2" data-name="Layer 2"><g id="Layer_1-2" data-name="Layer 1"><path class="cls-2" d="M0,161.75V267.82a104,104,0,0,0,52,90.07l91.87,53a104,104,0,0,0,104,0l91.87-53a104,104,0,0,0,52-90.07V161.75a104,104,0,0,0-52-90.07l-91.87-53a104,104,0,0,0-104,0L52,71.68A104,104,0,0,0,0,161.75Z"/><path class="cls-3" d="M330.77,94.42,232.66,37.78a73.55,73.55,0,0,0-73.58,0L61,94.42a73.56,73.56,0,0,0-36.79,63.72V271.42A73.58,73.58,0,0,0,61,335.15l98.11,56.64a73.55,73.55,0,0,0,73.58,0l98.11-56.64a73.6,73.6,0,0,0,36.79-63.73V158.14A73.58,73.58,0,0,0,330.77,94.42ZM358,265.9a73.59,73.59,0,0,1-36.79,63.73l-88.54,51.11a73.55,73.55,0,0,1-73.58,0L70.54,329.63A73.59,73.59,0,0,1,33.75,265.9V163.67A73.58,73.58,0,0,1,70.54,99.94l88.54-51.12a73.6,73.6,0,0,1,73.58,0L321.2,99.94A73.58,73.58,0,0,1,358,163.67Z"/><g class="cls-4"><path class="cls-5" d="M220.41,124.32a21.53,21.53,0,0,1,6.67,1,15,15,0,0,1,9,7.18c1.84,3.58,1.88,8.08.06,12.53-2.77,6.74-9.32,13.79-21.23,21.16h63.5a4.07,4.07,0,0,1,4,4.07V197a4.07,4.07,0,0,1-4,4.07h-8.65v97.18a4.07,4.07,0,0,1-4.06,4.07H120.24a4.07,4.07,0,0,1-4.07-4.07V201.1h-8.64a4.07,4.07,0,0,1-4.07-4.07V170.21a4.07,4.07,0,0,1,4.07-4.07H171c-11.91-7.37-18.52-14.42-21.29-21.16-1.82-4.45-1.78-8.95.06-12.53a14.93,14.93,0,0,1,9-7.18,21,21,0,0,1,6-1c10.19-.12,22,6.56,28.09,21.16,6-14.31,17.4-21,27.46-21.16Zm.57,8.2c-9.17-.11-23.36,7.75-24,33.62H198a3.37,3.37,0,0,1,.32-.19c19.48-9.56,28.12-18.51,30.38-24,1.13-2.75.86-4.48.19-5.78a6.69,6.69,0,0,0-4.19-3.11,12.71,12.71,0,0,0-3.69-.51Zm-56.06,0a13.11,13.11,0,0,0-3.69.51,6.69,6.69,0,0,0-4.19,3.11c-.67,1.3-.88,3,.25,5.79,2.27,5.51,10.84,14.47,30.32,24a3.37,3.37,0,0,1,.32.19h.95c-.6-25.87-14.79-33.73-24-33.62Zm50.91,68.58H170.2v93.11h45.63Zm32.48,8.39a3.23,3.23,0,0,0-.44,0,4.07,4.07,0,0,0-4.14,4v43.86a4.07,4.07,0,0,0,8.14,0V213.62A4.06,4.06,0,0,0,248.31,209.49Zm0,55.68h-.44a4.07,4.07,0,0,0-4.14,4V275a4.07,4.07,0,0,0,8.14,0V269.3A4.06,4.06,0,0,0,248.31,265.17Z"/></g><g class="cls-6"><g class="cls-7"><path class="cls-8" d="M220.41,124.32a21.53,21.53,0,0,1,6.67,1,15,15,0,0,1,9,7.18c1.84,3.58,1.88,8.08.06,12.53-2.77,6.74-9.32,13.79-21.23,21.16h63.5a4.07,4.07,0,0,1,4,4.07V197a4.07,4.07,0,0,1-4,4.07h-8.65v97.18a4.07,4.07,0,0,1-4.06,4.07H120.24a4.07,4.07,0,0,1-4.07-4.07V201.1h-8.64a4.07,4.07,0,0,1-4.07-4.07V170.21a4.07,4.07,0,0,1,4.07-4.07H171c-11.91-7.37-18.52-14.42-21.29-21.16-1.82-4.45-1.78-8.95.06-12.53a14.93,14.93,0,0,1,9-7.18,21,21,0,0,1,6-1c10.19-.12,22,6.56,28.09,21.16,6-14.31,17.4-21,27.46-21.16Zm.57,8.2c-9.17-.11-23.36,7.75-24,33.62H198a3.37,3.37,0,0,1,.32-.19c19.48-9.56,28.12-18.51,30.38-24,1.13-2.75.86-4.48.19-5.78a6.69,6.69,0,0,0-4.19-3.11,12.71,12.71,0,0,0-3.69-.51Zm-56.06,0a13.11,13.11,0,0,0-3.69.51,6.69,6.69,0,0,0-4.19,3.11c-.67,1.3-.88,3,.25,5.79,2.27,5.51,10.84,14.47,30.32,24a3.37,3.37,0,0,1,.32.19h.95c-.6-25.87-14.79-33.73-24-33.62Zm50.91,68.58H170.2v93.11h45.63Zm32.48,8.39a3.23,3.23,0,0,0-.44,0,4.07,4.07,0,0,0-4.14,4v43.86a4.07,4.07,0,0,0,8.14,0V213.62A4.06,4.06,0,0,0,248.31,209.49Zm0,55.68h-.44a4.07,4.07,0,0,0-4.14,4V275a4.07,4.07,0,0,0,8.14,0V269.3A4.06,4.06,0,0,0,248.31,265.17Z"/></g></g><g class="cls-9"><path class="cls-10" d="M196,0a73.49,73.49,0,0,0-36.95,9.85L36.79,80.45A73.61,73.61,0,0,0,0,144.18v141.2a73.55,73.55,0,0,0,12,40.2L196,215.68Z"/><path class="cls-11" d="M379.79,325.54a73.53,73.53,0,0,0,11.95-40.16V144.18a73.6,73.6,0,0,0-36.8-63.73L232.66,9.85A73.58,73.58,0,0,0,196,0V215.68Z"/><path class="cls-12" d="M196,215.68,12,325.58a73.66,73.66,0,0,0,24.82,23.53l122.29,70.6a73.6,73.6,0,0,0,73.58,0l122.28-70.6a73.5,73.5,0,0,0,24.85-23.57Z"/></g></g></g></svg>