<svg xmlns="http://www.w3.org/2000/svg" xmlns:xlink="http://www.w3.org/1999/xlink" viewBox="0 0 778.18 527.38"><defs><style>.cls-1,.cls-2{fill:#fff;}.cls-2{opacity:0.5;}.cls-3{fill:url(#blue_gradient);}</style><linearGradient id="blue_gradient" x1="378.84" y1="277.83" x2="540.55" y2="277.83" gradientTransform="translate(205.57 -102.54) rotate(-5.05)" gradientUnits="userSpaceOnUse"><stop offset="0" stop-color="#00b9e3"/><stop offset="1" stop-color="#0097ce"/></linearGradient></defs><title>mobile-club</title><g id="Layer_2" data-name="Layer 2"><g id="Layer_1-2" data-name="Layer 1"><path class="cls-1" d="M506.38,461.75c-1.64.46-3.28.88-4.94,1.27s-3.29.77-4.85,1.11c-19.43,4.25-39.82,2-55.95-6.22-27.12-13.79-36.19-46.15-42.81-69.78l-.42-1.51c-3.47-12.35-4.88-17-5.72-19.79-1.3-4.29-1.47-4.94-4.44-17.07l-21.43-74.87a16.38,16.38,0,0,1,11.23-20.23l.08,0a16.35,16.35,0,0,1,20.15,11.25l21.51,75.17c.06.2.12.41.17.61,2.9,11.88,3,12.1,4.05,15.7.88,2.9,2.34,7.74,5.9,20.41l.43,1.52c5,17.79,11.82,42.16,26.13,49.44,9.23,4.7,22.3,6,34.11,3.42,1.39-.3,2.85-.63,4.34-1,29-6.83,53.42-27.86,65.38-56.2,6.87-16.29,26.84-55.15,64.16-64.06,24.11-5.77,49.34,2.31,75,24a16.36,16.36,0,1,1-21.14,25c-17.26-14.6-32.82-20.37-46.24-17.16-18.58,4.46-33.69,26.14-41.63,45C574.12,424,543.3,451.38,506.38,461.75Z"/><path class="cls-1" d="M319.78,514.15c1.63-.46,3.25-.95,4.88-1.48s3.2-1.06,4.72-1.59c18.8-6.48,35-19,44.53-34.43,16-25.89,6.87-58.24.22-81.86l-.42-1.51c-3.47-12.36-4.69-17.06-5.43-19.87-1.12-4.35-1.31-5-5.09-16.9l-20.68-75.07A16.36,16.36,0,0,0,322.39,270l-.08,0A16.35,16.35,0,0,0,311,290.13l20.77,75.38c0,.2.11.41.18.61,3.7,11.65,3.76,11.87,4.71,15.52.76,2.92,2,7.82,5.59,20.48l.42,1.53c5,17.79,11.86,42.15,3.43,55.82-5.44,8.82-15.91,16.74-27.34,20.68-1.35.46-2.76.94-4.22,1.41-28.3,9.26-60.11,4-85.08-13.95-14.35-10.33-51.63-33.1-88.13-21.29C117.71,454,100.37,474,89.76,505.85a16.36,16.36,0,0,0,31.05,10.33c7.14-21.45,17.42-34.48,30.55-38.72,18.18-5.87,42.37,4.78,58.95,16.71C242.3,517.2,282.86,524.52,319.78,514.15Z"/><path class="cls-1" d="M517.92,328.83a74.32,74.32,0,0,1-9.42,2l-.7.1c-18.57,2.58-45.46-2.27-68.25-40a176.87,176.87,0,0,1-17.83-41.58A16.36,16.36,0,0,1,453.36,241h0c.17.62,17.48,62.06,49.9,57.55l.63-.09a40.8,40.8,0,0,0,33.24-51.79c-23-79.59-23.85-84-24.19-85.94-7.34-40.58,5.13-73.79,34.21-91.11,28.41-16.92,67.73-14.23,93.48,6.4,25,20,32.63,51.66,21.07,86.89A16.58,16.58,0,0,1,652.55,173,16.37,16.37,0,0,1,631,151.59c6.8-21.67,3.08-39-10.79-50.07-15.24-12.21-39.43-13.86-56.28-3.82S540.31,128,545.12,154.76c.37,1.71,3.17,12.74,23.44,82.77a73.56,73.56,0,0,1-50.64,91.3Z"/><path class="cls-1" d="M240.74,406.67A73.58,73.58,0,0,1,150,355.08c-19.13-70.32-22.49-81.21-23.06-82.86-9.81-25.33-26-39.16-45.74-39s-39.41,14.21-46.06,32.57c-6.06,16.71-.23,33.41,16.85,48.36a16.37,16.37,0,0,1-7.31,29.48,16.56,16.56,0,0,1-13.07-3.85C3.36,315.77-6.58,284.73,4.32,254.68c11.25-31,43.42-53.79,76.49-54.14,33.84-.35,61.78,21.51,76.64,60,.69,1.8,2.32,6,24.08,86A40.82,40.82,0,0,0,236.9,373.4l.57-.25c30-13,12.81-74.49,12.63-75.11a16.36,16.36,0,0,1,31.36-9.35,177.11,177.11,0,0,1,6.42,44.79c.2,44.11-20.23,62.25-37.4,69.7l-.65.28A76.16,76.16,0,0,1,240.74,406.67Z"/><path class="cls-1" d="M472.16,227.72c-16.28-14.89-15.3-20.62-17.77-29.44l-11.54-53a15.08,15.08,0,0,0-.72-2c-.43-1.93-.92-3.87-1.47-5.8h0A114.87,114.87,0,0,0,299,58l-12.37,3.47A114.89,114.89,0,0,0,207.1,203.13h0q.81,2.9,1.77,5.72a15.19,15.19,0,0,0,.42,2.07L227,262.14c2.48,8.81,6.3,13.19.15,34.38-6.08,20.93,19.15,14.92,26.34,12.9l95.26-26.75,4.81-1.35,2.75-.77,4.8-1.35,95.26-26.75C463.57,250.43,488.24,242.43,472.16,227.72ZM239.27,199.78a4.27,4.27,0,0,1-3.07,3.49,4.2,4.2,0,0,1-1.77.12,4.29,4.29,0,0,1-3.61-4.85,30.59,30.59,0,0,1,34.71-25.82,4.27,4.27,0,0,1-1.24,8.45,22,22,0,0,0-25,18.61Zm33.17,31.55a13.52,13.52,0,1,1,9.36-16.67A13.52,13.52,0,0,1,272.44,231.33Zm99.71.52A42.24,42.24,0,0,1,314.69,248a4.27,4.27,0,0,1,4.18-7.44,33.7,33.7,0,0,0,45.84-12.87,4.27,4.27,0,1,1,7.44,4.18Zm27.41-36.22A13.51,13.51,0,1,1,408.91,179,13.52,13.52,0,0,1,399.56,195.63ZM417.47,152a4.3,4.3,0,0,1-1.58.83,4.25,4.25,0,0,1-4.43-1.38,22.05,22.05,0,0,0-31.06-2.87A4.27,4.27,0,1,1,375,142,30.58,30.58,0,0,1,418,146,4.27,4.27,0,0,1,417.47,152Z"/><path class="cls-2" d="M501.46,240.12c-19.46-17.8-18.28-24.65-21.24-35.19l-13.79-63.3a18,18,0,0,0-.86-2.37q-.78-3.48-1.76-6.94h0A137.31,137.31,0,0,0,294.48,37.24L279.7,41.39a137.32,137.32,0,0,0-95.08,169.34h0q1,3.47,2.11,6.83a19.3,19.3,0,0,0,.5,2.47l21.19,61.23c3,10.54,7.53,15.78.18,41.1-7.27,25,22.89,17.84,31.49,15.42l113.86-32,5.75-1.62,3.29-.92,5.74-1.62,113.87-32C491.2,267.26,520.69,257.7,501.46,240.12ZM272.55,232a13.12,13.12,0,1,1,9.08-16.18A13.11,13.11,0,0,1,272.55,232Zm127.27-35.74a13.12,13.12,0,1,1,9.09-16.18A13.12,13.12,0,0,1,399.82,196.29Z"/><rect class="cls-3" x="616.62" y="22.42" width="142.66" height="222.61" transform="translate(-11.71 93.4) rotate(-7.7)"/><path class="cls-1" d="M768.59,157.59,778,239a28.73,28.73,0,0,1-.8,9.79,15.08,15.08,0,0,1-6,8.17,20.33,20.33,0,0,1-9.55,3.6l-112.05,13A24.08,24.08,0,0,1,637.28,272c-.58-.21-1.46-.66-2-.87a16,16,0,0,1-8-11.54l-.73-6.29L601.26,35.47c-.76-6.56.21-12.49,5.24-16.95a5.56,5.56,0,0,1,2-1.35,23.75,23.75,0,0,1,10.38-3.7L735.08,0c11.49,1.16,16.81,8.85,17.81,19.82,2.77,26.26,6.12,52.74,8.89,79M741.6,30l-.31-2.74L614.48,42l23.14,199.51,126.54-14.68-.38-3.28c-2.6-22.41-5.17-44.54-8-66.92m-44.19,91.82a8.7,8.7,0,0,0-9.76-7.74,8.95,8.95,0,0,0,2.06,17.77A9.52,9.52,0,0,0,711.55,248.41ZM676.11,19.3l-17.49,2c-1.64.19-3,.63-2.76,2.54s1.59,1.75,3.23,1.56l35.26-4.09c1.36-.16,3-.62,2.78-2.26-.22-1.91-1.62-2-3.26-1.84Z"/></g></g></svg>