<svg xmlns="http://www.w3.org/2000/svg" viewBox="0 0 332.36 228.17"><defs><style>.cls-1,.cls-2{fill:#fff;}.cls-2{opacity:0.5;isolation:isolate;}</style></defs><title>mr-glow</title><g id="Layer_2" data-name="Layer 2"><g id="Layer_1-2" data-name="Layer 1"><path class="cls-1" d="M213,228.17c-.82,0-1.64,0-2.46,0S209,228,208.17,228c-9.6-.56-18.8-4.28-25.24-10.21-10.82-10-10.81-26.22-10.81-38.09v-.76c0-6.21-.05-8.56-.07-10,0-2.17,0-2.49.16-8.53L172,122.79a7.91,7.91,0,0,1,7.87-8h0a7.91,7.91,0,0,1,7.91,7.87l.19,37.81v.31c-.2,5.91-.2,6-.16,7.84,0,1.46.08,3.91.08,10.27v.77c0,8.94,0,21.18,5.7,26.44,3.68,3.39,9.6,5.71,15.43,6l2.15.11A46.21,46.21,0,0,0,249,194.69c5.33-6.69,19.71-22.17,38.25-21.44,12,.47,22.67,7.53,31.78,21a7.91,7.91,0,0,1-13.11,8.87c-6.13-9-12.62-13.78-19.29-14-9.23-.35-19.1,7.76-25.26,15.49A62.21,62.21,0,0,1,213,228.17Z"/><path class="cls-1" d="M119.31,228.17c.82,0,1.64,0,2.46,0s1.63-.08,2.41-.12c9.6-.56,18.8-4.28,25.24-10.21,10.82-10,10.81-26.22,10.81-38.09v-.76c0-6.21.05-8.56.07-10,0-2.17,0-2.49-.16-8.53l.19-37.66a7.91,7.91,0,0,0-7.87-8h0a7.91,7.91,0,0,0-7.91,7.87l-.19,37.81v.31c.2,5.91.2,6,.16,7.84,0,1.46-.08,3.91-.08,10.27v.77c0,8.94,0,21.18-5.7,26.44-3.68,3.39-9.6,5.71-15.43,6l-2.15.11a46.21,46.21,0,0,1-37.79-17.62C78,188,63.62,172.52,45.08,173.25c-12,.47-22.67,7.53-31.78,21a7.91,7.91,0,0,0,13.11,8.87c6.13-9,12.62-13.78,19.29-14,9.23-.35,19.1,7.76,25.26,15.49A62.2,62.2,0,0,0,119.31,228.17Z"/><path class="cls-1" d="M235.79,167.79a34.55,34.55,0,0,1-4.64-.31l-.34,0c-9-1.22-20.87-7-26.54-27.56a85.17,85.17,0,0,1-2.86-21.69,7.91,7.91,0,0,1,15.82.25h0c0,.31,0,31.18,15.71,33.32l.3,0A19.74,19.74,0,0,0,255.49,132c-.32-40.07-.12-42.25,0-43.18,1.89-19.85,12-33.68,27.84-37.94,15.44-4.16,33.4,2.23,42.69,15.2,9,12.57,8.44,28.32-1.55,43.21a8,8,0,0,1-11.82,1.63,7.92,7.92,0,0,1-1-10.91c6-9.2,6.53-17.73,1.52-24.72-5.5-7.68-16.55-11.61-25.7-9.14s-14.95,11-16.2,24.11c-.05.85-.19,6.35.1,41.6a35.62,35.62,0,0,1-35.54,35.91Z"/><path class="cls-1" d="M96.56,167.79A35.58,35.58,0,0,1,61,131.9c.29-35.25.15-40.75.1-41.6-1.26-13.07-7-21.64-16.2-24.12s-20.2,1.46-25.7,9.14c-5,7-4.48,15.53,1.52,24.72a7.92,7.92,0,1,1-12.83,9.27C-2.07,94.42-2.63,78.67,6.37,66.1c9.29-13,27.25-19.37,42.69-15.2C64.86,55.16,75,69,76.9,88.84c.09.93.3,3.1,0,43.18a19.73,19.73,0,0,0,22.26,19.76l.3,0c15.68-2.14,15.7-33,15.7-33.32a7.91,7.91,0,0,1,15.82-.25,85.64,85.64,0,0,1-2.86,21.69c-5.67,20.56-17.56,26.34-26.53,27.56l-.34.05A33.28,33.28,0,0,1,96.56,167.79Z"/><path class="cls-2" d="M239.42,121.52c-6.73-10.83-5.29-13.87-5.29-19.16L236,71.08a9.57,9.57,0,0,0-.09-1.21c.06-1.15.09-2.3.09-3.46h0A66.41,66.41,0,0,0,169.58,0h-7.42A66.41,66.41,0,0,0,95.75,66.41h0c0,1.16,0,2.31.09,3.46a9.71,9.71,0,0,0-.09,1.21l1.86,31.28c0,5.29,1.44,8.33-5.29,19.16s8.33,11.3,12.65,11.3H226.8C231.09,132.81,246.07,132.22,239.42,121.52ZM133.9,87.82a6.35,6.35,0,1,1,6.35-6.35A6.35,6.35,0,0,1,133.9,87.82Zm63.93,0a6.35,6.35,0,1,1,6.35-6.35A6.35,6.35,0,0,1,197.83,87.82Z"/><path class="cls-1" d="M227.71,112.51c-5.63-9.06-4.43-11.6-4.43-16l1.55-26.17a8.59,8.59,0,0,0-.07-1c.05-1,.07-1.92.07-2.89h0a55.56,55.56,0,0,0-55.56-55.56h-6.21A55.56,55.56,0,0,0,107.5,66.4h0c0,1,0,1.94.07,2.89a8.45,8.45,0,0,0-.07,1l1.55,26.17c0,4.43,1.21,7-4.43,16s7,9.45,10.58,9.45H217.1C220.74,122,233.27,121.46,227.71,112.51ZM122.93,69.05A2.06,2.06,0,0,1,121,70.27a2.08,2.08,0,0,1-.84-.18,2.06,2.06,0,0,1-1-2.73,14.79,14.79,0,0,1,19.54-7.48A2.07,2.07,0,1,1,137,63.65a10.65,10.65,0,0,0-14.08,5.4Zm11.32,19a6.54,6.54,0,1,1,6.54-6.54A6.54,6.54,0,0,1,134.25,88.08Zm46.36,13.28a20.42,20.42,0,0,1-28.86,0,2.06,2.06,0,1,1,2.92-2.92,16.3,16.3,0,0,0,23,0,2.06,2.06,0,0,1,2.92,0A2.09,2.09,0,0,1,180.61,101.36ZM198.1,88.08a6.54,6.54,0,1,1,6.54-6.54A6.54,6.54,0,0,1,198.1,88.08Zm14.05-18a2.07,2.07,0,0,1-2.73-1,10.65,10.65,0,0,0-14.08-5.4,2.07,2.07,0,1,1-1.69-3.77,14.79,14.79,0,0,1,19.54,7.48A2.07,2.07,0,0,1,212.15,70.1Z"/></g></g></svg>