<?xml version="1.0" encoding="UTF-8"?>
<svg width="83px" height="16px" viewBox="0 0 83 16" version="1.1" xmlns="http://www.w3.org/2000/svg" xmlns:xlink="http://www.w3.org/1999/xlink">
    <!-- Generator: Sketch 52.4 (67378) - http://www.bohemiancoding.com/sketch -->
    <title>Group 5</title>
    <desc>Created with Sketch.</desc>
    <g id="Symbols" stroke="none" stroke-width="1" fill="none" fill-rule="evenodd">
        <g id="Group-5" fill="#E97100">
            <polygon id="Fill-1" points="8.0001 -0.0001 6.0001 5.7439 0.0001 5.7439 4.8901 9.5719 2.9681 15.4879 8.0001 11.8319 13.0321 15.4879 11.1101 9.5719 16.0001 5.7439 10.0001 5.7439"></polygon>
            <polygon id="Fill-2" points="24.610025 -0.0001 22.609025 5.7439 16.610025 5.7439 21.501025 9.5719 19.577025 15.4879 24.610025 11.8319 29.642025 15.4879 27.720025 9.5719 32.610025 5.7439 26.610025 5.7439"></polygon>
            <polygon id="Fill-3" points="41.21995 -0.0001 39.21995 5.7439 33.21995 5.7439 38.11095 9.5719 36.18895 15.4879 41.21995 11.8319 46.25295 15.4879 44.32995 9.5719 49.21995 5.7439 43.22095 5.7439"></polygon>
            <polygon id="Fill-4" points="57.829875 0 55.829875 5.744 49.829875 5.744 54.719875 9.572 52.797875 15.488 57.829875 11.832 62.860875 15.488 60.938875 9.572 65.829875 5.744 59.829875 5.744"></polygon>
            <polygon id="Fill-4-Copy" points="74.4398 0 72.4398 5.744 66.4398 5.744 71.3298 9.572 69.4078 15.488 74.4398 11.832 79.4708 15.488 77.5488 9.572 82.4398 5.744 76.4398 5.744"></polygon>
        </g>
    </g>
</svg>