<svg xmlns="http://www.w3.org/2000/svg" xmlns:xlink="http://www.w3.org/1999/xlink" viewBox="0 0 379.11 415.72"><defs><style>.cls-1{fill:url(#blue_gradient);}.cls-2{opacity:0.3;}.cls-3{fill:url(#linear-gradient);}.cls-4{opacity:0;fill:url(#linear-gradient-2);}.cls-5{opacity:0.5;fill:url(#linear-gradient-3);}.cls-6,.cls-8,.cls-9{fill:#fff;}.cls-6{opacity:0.95;}.cls-7{fill:none;}.cls-9{opacity:0.87;}</style><linearGradient id="blue_gradient" x1="94.78" y1="372.02" x2="284.33" y2="43.7" gradientUnits="userSpaceOnUse"><stop offset="0" stop-color="#00b9e3"/><stop offset="1" stop-color="#0097ce"/></linearGradient><linearGradient id="linear-gradient" y1="157.54" x2="189.71" y2="157.54" gradientUnits="userSpaceOnUse"><stop offset="0" stop-color="#fff" stop-opacity="0.6"/><stop offset="1" stop-color="#fff" stop-opacity="0.3"/></linearGradient><linearGradient id="linear-gradient-2" x1="189.71" y1="157.52" x2="379.11" y2="157.52" gradientUnits="userSpaceOnUse"><stop offset="0" stop-color="#fff"/><stop offset="1" stop-color="#fff" stop-opacity="0"/></linearGradient><linearGradient id="linear-gradient-3" x1="189.57" y1="415.72" x2="189.57" y2="208.73" xlink:href="#linear-gradient-2"/></defs><title>win-instantly</title><g id="Layer_2" data-name="Layer 2"><g id="Layer_1-2" data-name="Layer 1"><path class="cls-1" d="M0,142.83V272.89a76.93,76.93,0,0,0,38.46,66.62l112.63,65a76.92,76.92,0,0,0,76.92,0l112.64-65a76.93,76.93,0,0,0,38.46-66.62V142.83a76.91,76.91,0,0,0-38.46-66.61L228,11.19a76.92,76.92,0,0,0-76.92,0l-112.63,65A76.91,76.91,0,0,0,0,142.83Z"/><g class="cls-2"><path class="cls-3" d="M189.71,0A71.08,71.08,0,0,0,154,9.54L35.61,77.86A71.2,71.2,0,0,0,0,139.54V276.18a71.17,71.17,0,0,0,11.59,38.91L189.71,208.73Z"/><path class="cls-4" d="M367.54,315.05a71.19,71.19,0,0,0,11.57-38.87V139.54A71.22,71.22,0,0,0,343.5,77.86L225.16,9.54A71.14,71.14,0,0,0,189.71,0V208.73Z"/><path class="cls-5" d="M189.71,208.73,11.59,315.09a71.15,71.15,0,0,0,24,22.77L154,406.18a71.21,71.21,0,0,0,71.21,0L343.5,337.86a71.13,71.13,0,0,0,24-22.81Z"/></g><path class="cls-6" d="M320.1,91.37,225.16,36.56a71.21,71.21,0,0,0-71.21,0L59,91.37A71.2,71.2,0,0,0,23.4,153.05V262.68A71.2,71.2,0,0,0,59,324.35L154,379.17a71.21,71.21,0,0,0,71.21,0l94.94-54.82a71.22,71.22,0,0,0,35.61-61.67V153.05A71.22,71.22,0,0,0,320.1,91.37Zm26.35,166A71.23,71.23,0,0,1,310.84,319l-85.68,49.46a71.16,71.16,0,0,1-71.21,0L68.26,319a71.24,71.24,0,0,1-35.6-61.68V158.39a71.21,71.21,0,0,1,35.6-61.67L154,47.25a71.21,71.21,0,0,1,71.21,0l85.68,49.47a71.2,71.2,0,0,1,35.61,61.67Z"/><path class="cls-7" d="M127.59,161.81c-2.07,2.84-13.46,18.88-17.86,25.35V191h.52s55.89,3.88,74.52,4.4h5.3V154H139S130.17,158.18,127.59,161.81Z"/><path class="cls-7" d="M139.75,212c-5.44-1.81-31.83-5.17-31.83-5.17s-6.73,4.14-2.33,6.72c3.37,2.07,4.14,2.59,4.4,2.59l32.86,14s5.43.52,5.69-4.14a14.62,14.62,0,0,0-2.33-8.53S145.18,213.81,139.75,212Z"/><path class="cls-8" d="M184.77,195.44c-18.63-.52-74.52-4.4-74.52-4.4h-.52v-3.88c4.4-6.47,15.79-22.51,17.86-25.35C130.17,158.18,139,154,139,154h51.1v-6.47H138.19c-3.1.26-7.24,2.33-10.6,4.4-2.85,1.81-17.08,21.74-20.19,25.88a4.38,4.38,0,0,0-3.36-2.59,4.68,4.68,0,0,0-5.43-3.88l-10.09,1.29a4.74,4.74,0,0,0-4.14,5.44c.51,2.58,7,4.65,7.76,4.65l9.83,2.07a4.69,4.69,0,0,0,5.18-2.32l.51,4.39v4.66l-6.47,1.29h-.25c-3.63-1.29-8.28,1.56-10.35,6.73a11.83,11.83,0,0,0-.52,7.25v18.11c0,3.1.77,5.95,3.36,7.76,0,.26-.77.26-.77.52v28.2c.25,4.14,4.65,6.73,9,6.73h16c4.4,0,8.8-2.59,8.8-7v-8.54l1.29-.25,16.56,1.29,2.33,1.29h43.34V195.44Zm-41.92,34.67-32.86-14c-.26,0-1-.52-4.4-2.59-4.4-2.58,2.33-6.72,2.33-6.72s26.39,3.36,31.83,5.17,6.46,5.44,6.46,5.44a14.62,14.62,0,0,1,2.33,8.53C148.28,230.63,142.85,230.11,142.85,230.11Z"/><path class="cls-9" d="M234.7,253.66l16.56-1.29,1.3.25v8.54c0,4.4,4.39,7,8.79,7h16c4.4,0,8.8-2.59,9.06-6.73v-28.2c0-.26-.77-.26-.77-.52,2.58-1.81,3.36-4.66,3.36-7.76V206.83a11.83,11.83,0,0,0-.52-7.25c-2.07-5.17-6.73-8-10.35-6.73h-.26l-6.47-1.29V186.9l.52-4.39a4.69,4.69,0,0,0,5.18,2.32l9.83-2.07c.77,0,7.24-2.07,7.76-4.65a4.74,4.74,0,0,0-4.14-5.44l-10.09-1.29a4.67,4.67,0,0,0-5.43,3.88,4.4,4.4,0,0,0-3.37,2.59c-3.1-4.14-17.33-24.07-20.18-25.88-3.36-2.07-7.5-4.14-10.61-4.4H190.07V154h50.07s8.79,4.14,11.38,7.77c2.07,2.84,13.46,18.88,17.85,25.35V191h-.51s-55.89,3.88-74.52,4.4h-4.27V255h42.3ZM230.56,226a14.62,14.62,0,0,1,2.33-8.53s1-3.63,6.47-5.44,31.83-5.17,31.83-5.17,6.72,4.14,2.32,6.72c-3.36,2.07-4.14,2.59-4.39,2.59l-32.86,14S230.82,230.63,230.56,226Z"/><path class="cls-9" d="M287.26,138.67l-3.53-1.94a19.52,19.52,0,0,1-7.79-7.81L274,125.39a1.38,1.38,0,0,0-2.34,0l-1.93,3.53a19.46,19.46,0,0,1-7.79,7.81l-3.53,1.94a1.33,1.33,0,0,0-.69,1.16,1.32,1.32,0,0,0,.69,1.17l3.53,1.94a19.52,19.52,0,0,1,7.79,7.81l1.93,3.53a1.33,1.33,0,0,0,2.34,0l1.93-3.53a19.58,19.58,0,0,1,7.79-7.81l3.53-1.94a1.33,1.33,0,0,0,0-2.33Z"/><path class="cls-9" d="M262.51,119.16l-5.37-2.94a29.84,29.84,0,0,1-11.85-11.88L242.36,99a2.11,2.11,0,0,0-3.56,0l-2.93,5.38A29.84,29.84,0,0,1,224,116.22l-5.37,2.94a2,2,0,0,0,0,3.55l5.36,2.94a29.86,29.86,0,0,1,11.86,11.88l2.93,5.38a2,2,0,0,0,3.55,0l2.94-5.38a29.84,29.84,0,0,1,11.85-11.88l5.37-2.94a2,2,0,0,0,0-3.55Z"/></g></g></svg>