<svg xmlns="http://www.w3.org/2000/svg" xmlns:xlink="http://www.w3.org/1999/xlink" x="0px" y="0px" width="48px" height="48px" viewBox="0 0 48 48"><g transform="translate(0, 0)"><path d="M42,5H6a5,5,0,0,0-5,5V38a5,5,0,0,0,5,5H42a5,5,0,0,0,5-5V10A5,5,0,0,0,42,5ZM17,28.414,8.414,37A1,1,0,0,1,7,35.586L15.586,27A1,1,0,0,1,17,28.414Zm24.061,8.647a1,1,0,0,1-1.414,0L31,28.414A1,1,0,0,1,32.414,27l8.646,8.646A1,1,0,0,1,41.061,37.061ZM41,12.414,24.707,28.707a1,1,0,0,1-1.414,0L7,12.414A1,1,0,0,1,8.414,11L24,26.586,39.586,11A1,1,0,0,1,41,12.414Z" fill="#25b2fc"></path></g></svg>