<svg xmlns="http://www.w3.org/2000/svg" xmlns:xlink="http://www.w3.org/1999/xlink" viewBox="0 0 392.73 429.57"><defs><style>.cls-1{fill:none;}.cls-2{fill:url(#blue_gradient);}.cls-3,.cls-5,.cls-7{fill:#fff;}.cls-3{opacity:0.95;}.cls-4{clip-path:url(#clip-path);}.cls-6{clip-path:url(#clip-path-2);}.cls-7{opacity:0.87;}.cls-8{opacity:0.3;}.cls-9{fill:url(#linear-gradient);}.cls-10{opacity:0;fill:url(#linear-gradient-2);}.cls-11{opacity:0.5;fill:url(#linear-gradient-3);}</style><linearGradient id="blue_gradient" x1="98.93" y1="387.46" x2="294.8" y2="48.21" gradientUnits="userSpaceOnUse"><stop offset="0" stop-color="#00b9e3"/><stop offset="1" stop-color="#0097ce"/></linearGradient><clipPath id="clip-path"><rect class="cls-1" x="101.22" y="123.94" width="91.46" height="174.6"/></clipPath><clipPath id="clip-path-2"><rect class="cls-1" x="192.67" y="123.94" width="91.46" height="174.6"/></clipPath><linearGradient id="linear-gradient" y1="162.79" x2="196.03" y2="162.79" gradientUnits="userSpaceOnUse"><stop offset="0" stop-color="#fff" stop-opacity="0.6"/><stop offset="1" stop-color="#fff" stop-opacity="0.3"/></linearGradient><linearGradient id="linear-gradient-2" x1="196.03" y1="162.77" x2="391.74" y2="162.77" gradientUnits="userSpaceOnUse"><stop offset="0" stop-color="#fff"/><stop offset="1" stop-color="#fff" stop-opacity="0"/></linearGradient><linearGradient id="linear-gradient-3" x1="195.88" y1="429.57" x2="195.88" y2="215.68" xlink:href="#linear-gradient-2"/></defs><title>enter-to-win</title><g id="Layer_2" data-name="Layer 2"><g id="Layer_1-2" data-name="Layer 1"><path class="cls-2" d="M1,164.8V270.87a104,104,0,0,0,52,90.07l91.86,53a104,104,0,0,0,104,0l91.87-53a104,104,0,0,0,52-90.07V164.8a104,104,0,0,0-52-90.07l-91.87-53a104,104,0,0,0-104,0L53,74.73A104,104,0,0,0,1,164.8Z"/><path class="cls-3" d="M331.76,97.47l-98.1-56.64a73.57,73.57,0,0,0-73.59,0L62,97.47a73.57,73.57,0,0,0-36.8,63.72V274.47A73.59,73.59,0,0,0,62,338.2l98.1,56.64a73.57,73.57,0,0,0,73.59,0l98.1-56.64a73.58,73.58,0,0,0,36.79-63.73V161.19A73.56,73.56,0,0,0,331.76,97.47ZM359,269a73.6,73.6,0,0,1-36.8,63.73L233.66,383.8a73.62,73.62,0,0,1-73.59,0L71.53,332.68A73.59,73.59,0,0,1,34.74,269V166.72A73.58,73.58,0,0,1,71.53,103l88.54-51.12a73.62,73.62,0,0,1,73.59,0L322.19,103A73.59,73.59,0,0,1,359,166.72Z"/><g class="cls-4"><path class="cls-5" d="M271.87,143.9H254.41v13.92a8.34,8.34,0,0,1-8.31,8.32H234.25a8.34,8.34,0,0,1-8.32-8.32V143.9H163.78v13.92a8.34,8.34,0,0,1-8.31,8.32H143.62a8.35,8.35,0,0,1-8.32-8.32V143.9H117.84a16.23,16.23,0,0,0-16.21,16.21v16.63H288.08V160.11A16.23,16.23,0,0,0,271.87,143.9Z"/><path class="cls-5" d="M238.38,224.73h-2.16v2.9h2.14c1.19,0,1.91-.53,1.91-1.44v0C240.27,225.19,239.53,224.73,238.38,224.73Z"/><polygon class="cls-5" points="219.47 229.9 222.18 229.9 220.83 226.29 219.47 229.9"/><path class="cls-5" d="M101.42,185.05V281.5a16.23,16.23,0,0,0,16.22,16.21H248.38a8.73,8.73,0,0,1-.83-3.11V271.11a7.28,7.28,0,0,1,7.48-7.28H285a7.48,7.48,0,0,1,3.11.63V185.05H101.42ZM181,260.15H140.51v-14H152.8V221.62l-11,2.9L138.31,211l19.19-6h12.69v41.19H181Zm9.92-30.06v5.31H186v-5.25l-5.6-9.58h5.55l2.55,4.88,2.56-4.88h5.49Zm19.93,5.31H198.09V220.57h12.64v4.07H203v1.51h7.25v3.58H203v1.61h7.88Zm13.36,0-.79-2h-5.19l-.76,2h-5.3l6.25-14.93h4.92l6.25,14.93Zm15.88,0-2.8-4.23h-1.06v4.23h-5V220.57h7.25c2.63,0,4.3.66,5.34,1.7a4.65,4.65,0,0,1,1.35,3.51v.05a4.79,4.79,0,0,1-2.92,4.53l3.45,5Z"/><rect class="cls-5" x="139.25" y="124.56" width="20.16" height="37.21" rx="4.16"/><rect class="cls-5" x="229.88" y="124.56" width="20.16" height="37.21" rx="4.16"/><path class="cls-5" d="M285,268H255a3.2,3.2,0,0,0-3.11,3.12V294.8a3.19,3.19,0,0,0,3.11,3.12l33-26.81A3.06,3.06,0,0,0,285,268Z"/></g><g class="cls-6"><path class="cls-7" d="M269.79,143.9H252.33v13.92a8.34,8.34,0,0,1-8.31,8.32H232.17a8.35,8.35,0,0,1-8.32-8.32V143.9H161.7v13.92a8.34,8.34,0,0,1-8.31,8.32H141.54a8.34,8.34,0,0,1-8.31-8.32V143.9H115.77a16.23,16.23,0,0,0-16.22,16.21v16.63H286V160.11A16.23,16.23,0,0,0,269.79,143.9Z"/><path class="cls-5" d="M236.3,224.73h-2.16v2.9h2.14c1.19,0,1.91-.53,1.91-1.44v0C238.19,225.19,237.45,224.73,236.3,224.73Z"/><polygon class="cls-5" points="217.39 229.9 220.1 229.9 218.75 226.29 217.39 229.9"/><path class="cls-7" d="M99.34,185.05V281.5a16.23,16.23,0,0,0,16.22,16.21H246.3a8.73,8.73,0,0,1-.83-3.11V271.11a7.28,7.28,0,0,1,7.49-7.28h29.93a7.56,7.56,0,0,1,3.12.63V185.05H99.34Zm79.57,75.1H138.43v-14h12.29V221.62l-11,2.9L136.24,211l19.18-6h12.69v41.19h10.8Zm9.93-30.06v5.31h-5v-5.25l-5.6-9.58h5.56l2.54,4.88,2.56-4.88h5.49Zm19.92,5.31H196V220.57h12.65v4.07h-7.78v1.51h7.25v3.58h-7.25v1.61h7.88Zm13.36,0-.79-2h-5.19l-.76,2h-5.3l6.25-14.93h4.92l6.25,14.93Zm15.88,0-2.8-4.23h-1.06v4.23h-5V220.57h7.25c2.63,0,4.3.66,5.34,1.7a4.65,4.65,0,0,1,1.36,3.51v.05a4.8,4.8,0,0,1-2.93,4.53l3.45,5Z"/><rect class="cls-7" x="137.18" y="124.56" width="20.16" height="37.21" rx="4.16"/><rect class="cls-7" x="227.8" y="124.56" width="20.16" height="37.21" rx="4.16"/><path class="cls-7" d="M282.89,268H253a3.2,3.2,0,0,0-3.12,3.12V294.8a3.19,3.19,0,0,0,3.12,3.12l33-26.81A3.07,3.07,0,0,0,282.89,268Z"/></g><g class="cls-8"><path class="cls-9" d="M196,0a73.49,73.49,0,0,0-36.95,9.85L36.79,80.45A73.61,73.61,0,0,0,0,144.18v141.2a73.55,73.55,0,0,0,12,40.2L196,215.68Z"/><path class="cls-10" d="M379.79,325.54a73.53,73.53,0,0,0,11.95-40.16V144.18a73.6,73.6,0,0,0-36.8-63.73L232.66,9.85A73.58,73.58,0,0,0,196,0V215.68Z"/><path class="cls-11" d="M196,215.68,12,325.58a73.66,73.66,0,0,0,24.82,23.53l122.29,70.6a73.6,73.6,0,0,0,73.58,0l122.28-70.6a73.5,73.5,0,0,0,24.85-23.57Z"/></g></g></g></svg>